<svg xmlns="http://www.w3.org/2000/svg" xmlns:xlink="http://www.w3.org/1999/xlink" contentStyleType="text/css" data-diagram-type="CLASS" height="301px" preserveAspectRatio="none" style="width:786px;height:301px;background:#FFFFFF;" version="1.1" viewBox="0 0 786 301" width="786px" zoomAndPan="magnify"><defs/><g><!--class InputHandler--><g class="entity" data-entity="InputHandler" data-source-line="2" data-uid="ent0002" id="entity_InputHandler"><rect fill="#F1F1F1" height="64.4883" rx="2.5" ry="2.5" style="stroke:#181818;stroke-width:0.5;" width="120.5527" x="127.4" y="230.42"/><ellipse cx="142.4" cy="246.42" fill="#B4A7E5" rx="11" ry="11" style="stroke:#181818;stroke-width:1;"/><path d="M138.8277,242.6851 L138.8277,240.5269 L146.2071,240.5269 L146.2071,242.6851 L143.7418,242.6851 L143.7418,250.7618 L146.2071,250.7618 L146.2071,252.92 L138.8277,252.92 L138.8277,250.7618 L141.2931,250.7618 L141.2931,242.6851 Z " fill="#000000"/><text fill="#000000" font-family="sans-serif" font-size="14" font-style="italic" lengthAdjust="spacing" textLength="88.5527" x="156.4" y="251.711">InputHandler</text><line style="stroke:#181818;stroke-width:0.5;" x1="128.4" x2="246.9527" y1="262.42" y2="262.42"/><line style="stroke:#181818;stroke-width:0.5;" x1="128.4" x2="246.9527" y1="270.42" y2="270.42"/><ellipse cx="138.4" cy="284.1641" fill="#84BE84" rx="3" ry="3" style="stroke:#038048;stroke-width:1;"/><text fill="#000000" font-family="sans-serif" font-size="14" lengthAdjust="spacing" textLength="92.4355" x="147.4" y="287.9552">read() : String</text></g><!--class InputHandlerImpl--><g class="entity" data-entity="InputHandlerImpl" data-source-line="6" data-uid="ent0003" id="entity_InputHandlerImpl"><rect fill="#F1F1F1" height="97.4648" rx="2.5" ry="2.5" style="stroke:#181818;stroke-width:0.5;" width="155.6162" x="40.87" y="39.98"/><ellipse cx="58.1657" cy="55.98" fill="#ADD1B2" rx="11" ry="11" style="stroke:#181818;stroke-width:1;"/><path d="M60.6388,62.1231 Q60.0578,62.4219 59.4186,62.5713 Q58.7795,62.7207 58.0739,62.7207 Q55.5671,62.7207 54.2472,61.0689 Q52.9274,59.417 52.9274,56.2959 Q52.9274,53.1665 54.2472,51.5147 Q55.5671,49.8628 58.0739,49.8628 Q58.7795,49.8628 59.4269,50.0122 Q60.0744,50.1616 60.6388,50.4605 L60.6388,53.1831 Q60.008,52.6021 59.4145,52.3323 Q58.821,52.0625 58.1901,52.0625 Q56.8454,52.0625 56.1606,53.1292 Q55.4758,54.1958 55.4758,56.2959 Q55.4758,58.3877 56.1606,59.4544 Q56.8454,60.521 58.1901,60.521 Q58.821,60.521 59.4145,60.2512 Q60.008,59.9815 60.6388,59.4004 Z " fill="#000000"/><text fill="#000000" font-family="sans-serif" font-size="14" lengthAdjust="spacing" textLength="118.5146" x="72.6759" y="61.271">InputHandlerImpl</text><line style="stroke:#181818;stroke-width:0.5;" x1="41.87" x2="195.4862" y1="71.98" y2="71.98"/><rect fill="none" height="6" style="stroke:#C82930;stroke-width:1;" width="6" x="48.87" y="82.7241"/><text fill="#000000" font-family="sans-serif" font-size="14" lengthAdjust="spacing" textLength="129.6162" x="60.87" y="89.5152">keyboard : Scanner</text><line style="stroke:#181818;stroke-width:0.5;" x1="41.87" x2="195.4862" y1="96.4683" y2="96.4683"/><ellipse cx="51.87" cy="110.2124" fill="#84BE84" rx="3" ry="3" style="stroke:#038048;stroke-width:1;"/><text fill="#000000" font-family="sans-serif" font-size="14" lengthAdjust="spacing" textLength="127.6201" x="60.87" y="114.0034">InputHandlerImpl()</text><ellipse cx="51.87" cy="126.7007" fill="#84BE84" rx="3" ry="3" style="stroke:#038048;stroke-width:1;"/><text fill="#000000" font-family="sans-serif" font-size="14" lengthAdjust="spacing" textLength="92.4355" x="60.87" y="130.4917">read() : String</text></g><!--class Scanner--><g class="entity" data-entity="Scanner" data-source-line="13" data-uid="ent0005" id="entity_Scanner"><rect fill="#F1F1F1" height="48" rx="2.5" ry="2.5" style="stroke:#181818;stroke-width:0.5;" width="85.3477" x="7" y="238.67"/><ellipse cx="22" cy="254.67" fill="#ADD1B2" rx="11" ry="11" style="stroke:#181818;stroke-width:1;"/><path d="M24.4731,260.8131 Q23.8921,261.1119 23.2529,261.2613 Q22.6138,261.4107 21.9082,261.4107 Q19.4014,261.4107 18.0815,259.7589 Q16.7617,258.107 16.7617,254.9859 Q16.7617,251.8565 18.0815,250.2047 Q19.4014,248.5528 21.9082,248.5528 Q22.6138,248.5528 23.2612,248.7022 Q23.9087,248.8516 24.4731,249.1505 L24.4731,251.8731 Q23.8423,251.2921 23.2488,251.0223 Q22.6553,250.7525 22.0244,250.7525 Q20.6797,250.7525 19.9949,251.8192 Q19.3101,252.8858 19.3101,254.9859 Q19.3101,257.0777 19.9949,258.1444 Q20.6797,259.211 22.0244,259.211 Q22.6553,259.211 23.2488,258.9412 Q23.8423,258.6715 24.4731,258.0904 Z " fill="#000000"/><text fill="#000000" font-family="sans-serif" font-size="14" lengthAdjust="spacing" textLength="53.3477" x="36" y="259.961">Scanner</text><line style="stroke:#181818;stroke-width:0.5;" x1="8" x2="91.3477" y1="270.67" y2="270.67"/><line style="stroke:#181818;stroke-width:0.5;" x1="8" x2="91.3477" y1="278.67" y2="278.67"/></g><!--class OutputHandler--><g class="entity" data-entity="OutputHandler" data-source-line="15" data-uid="ent0007" id="entity_OutputHandler"><rect fill="#F1F1F1" height="64.4883" rx="2.5" ry="2.5" style="stroke:#181818;stroke-width:0.5;" width="180.6084" x="599.37" y="230.42"/><ellipse cx="635.9595" cy="246.42" fill="#B4A7E5" rx="11" ry="11" style="stroke:#181818;stroke-width:1;"/><path d="M632.3872,242.6851 L632.3872,240.5269 L639.7666,240.5269 L639.7666,242.6851 L637.3013,242.6851 L637.3013,250.7618 L639.7666,250.7618 L639.7666,252.92 L632.3872,252.92 L632.3872,250.7618 L634.8525,250.7618 L634.8525,242.6851 Z " fill="#000000"/><text fill="#000000" font-family="sans-serif" font-size="14" font-style="italic" lengthAdjust="spacing" textLength="100.6318" x="654.7571" y="251.711">OutputHandler</text><line style="stroke:#181818;stroke-width:0.5;" x1="600.37" x2="778.9784" y1="262.42" y2="262.42"/><line style="stroke:#181818;stroke-width:0.5;" x1="600.37" x2="778.9784" y1="270.42" y2="270.42"/><ellipse cx="610.37" cy="284.1641" fill="#84BE84" rx="3" ry="3" style="stroke:#038048;stroke-width:1;"/><text fill="#000000" font-family="sans-serif" font-size="14" lengthAdjust="spacing" textLength="154.6084" x="619.37" y="287.9552">print(Result&lt;?&gt; result)</text></g><!--class OutputHandlerImpl--><g class="entity" data-entity="OutputHandlerImpl" data-source-line="19" data-uid="ent0008" id="entity_OutputHandlerImpl"><rect fill="#F1F1F1" height="80.9766" rx="2.5" ry="2.5" style="stroke:#181818;stroke-width:0.5;" width="180.6084" x="599.37" y="48.22"/><ellipse cx="622.4766" cy="64.22" fill="#ADD1B2" rx="11" ry="11" style="stroke:#181818;stroke-width:1;"/><path d="M624.9497,70.3631 Q624.3687,70.6619 623.7295,70.8113 Q623.0904,70.9607 622.3848,70.9607 Q619.878,70.9607 618.5581,69.3089 Q617.2383,67.657 617.2383,64.5359 Q617.2383,61.4065 618.5581,59.7547 Q619.878,58.1028 622.3848,58.1028 Q623.0904,58.1028 623.7378,58.2522 Q624.3853,58.4016 624.9497,58.7005 L624.9497,61.4231 Q624.3189,60.8421 623.7254,60.5723 Q623.1319,60.3025 622.501,60.3025 Q621.1563,60.3025 620.4715,61.3692 Q619.7867,62.4358 619.7867,64.5359 Q619.7867,66.6277 620.4715,67.6944 Q621.1563,68.761 622.501,68.761 Q623.1319,68.761 623.7254,68.4912 Q624.3189,68.2215 624.9497,67.6404 Z " fill="#000000"/><text fill="#000000" font-family="sans-serif" font-size="14" lengthAdjust="spacing" textLength="130.5938" x="638.2781" y="69.511">OutputHandlerImpl</text><line style="stroke:#181818;stroke-width:0.5;" x1="600.37" x2="778.9784" y1="80.22" y2="80.22"/><line style="stroke:#181818;stroke-width:0.5;" x1="600.37" x2="778.9784" y1="88.22" y2="88.22"/><ellipse cx="610.37" cy="101.9641" fill="#84BE84" rx="3" ry="3" style="stroke:#038048;stroke-width:1;"/><text fill="#000000" font-family="sans-serif" font-size="14" lengthAdjust="spacing" textLength="139.6992" x="619.37" y="105.7552">OutputHandlerImpl()</text><ellipse cx="610.37" cy="118.4524" fill="#84BE84" rx="3" ry="3" style="stroke:#038048;stroke-width:1;"/><text fill="#000000" font-family="sans-serif" font-size="14" lengthAdjust="spacing" textLength="154.6084" x="619.37" y="122.2434">print(Result&lt;?&gt; result)</text></g><!--class InputConverter--><g class="entity" data-entity="InputConverter" data-source-line="26" data-uid="ent0010" id="entity_InputConverter"><rect fill="#F1F1F1" height="64.4883" rx="2.5" ry="2.5" style="stroke:#181818;stroke-width:0.5;" width="281.418" x="282.96" y="230.42"/><ellipse cx="368.4331" cy="246.42" fill="#B4A7E5" rx="11" ry="11" style="stroke:#181818;stroke-width:1;"/><path d="M364.8609,242.6851 L364.8609,240.5269 L372.2403,240.5269 L372.2403,242.6851 L369.7749,242.6851 L369.7749,250.7618 L372.2403,250.7618 L372.2403,252.92 L364.8609,252.92 L364.8609,250.7618 L367.3262,250.7618 L367.3262,242.6851 Z " fill="#000000"/><text fill="#000000" font-family="sans-serif" font-size="14" font-style="italic" lengthAdjust="spacing" textLength="101.9717" x="388.9331" y="251.711">InputConverter</text><line style="stroke:#181818;stroke-width:0.5;" x1="283.96" x2="563.378" y1="262.42" y2="262.42"/><line style="stroke:#181818;stroke-width:0.5;" x1="283.96" x2="563.378" y1="270.42" y2="270.42"/><ellipse cx="293.96" cy="284.1641" fill="#84BE84" rx="3" ry="3" style="stroke:#038048;stroke-width:1;"/><text fill="#000000" font-family="sans-serif" font-size="14" lengthAdjust="spacing" textLength="255.418" x="302.96" y="287.9552">toCommand(String input) : Command</text></g><!--class CPUSimulator--><g class="entity" data-entity="CPUSimulator" data-source-line="31" data-uid="ent0011" id="entity_CPUSimulator"><rect fill="#F1F1F1" height="163.418" rx="2.5" ry="2.5" style="stroke:#181818;stroke-width:0.5;" width="243.2461" x="302.05" y="7"/><ellipse cx="373.5163" cy="23" fill="#ADD1B2" rx="11" ry="11" style="stroke:#181818;stroke-width:1;"/><path d="M375.9895,29.1431 Q375.4084,29.4419 374.7692,29.5913 Q374.1301,29.7407 373.4245,29.7407 Q370.9177,29.7407 369.5979,28.0889 Q368.278,26.437 368.278,23.3159 Q368.278,20.1865 369.5979,18.5347 Q370.9177,16.8828 373.4245,16.8828 Q374.1301,16.8828 374.7775,17.0322 Q375.425,17.1816 375.9895,17.4805 L375.9895,20.2031 Q375.3586,19.6221 374.7651,19.3523 Q374.1716,19.0825 373.5407,19.0825 Q372.196,19.0825 371.5112,20.1492 Q370.8264,21.2158 370.8264,23.3159 Q370.8264,25.4077 371.5112,26.4744 Q372.196,27.541 373.5407,27.541 Q374.1716,27.541 374.7651,27.2712 Q375.3586,27.0015 375.9895,26.4204 Z " fill="#000000"/><text fill="#000000" font-family="sans-serif" font-size="14" lengthAdjust="spacing" textLength="91.8135" x="394.0163" y="28.291">CPUSimulator</text><line style="stroke:#181818;stroke-width:0.5;" x1="303.05" x2="544.2961" y1="39" y2="39"/><rect fill="none" height="6" style="stroke:#C82930;stroke-width:1;" width="6" x="310.05" y="49.7441"/><text fill="#000000" font-family="sans-serif" font-size="14" lengthAdjust="spacing" textLength="167.2891" x="322.05" y="56.5352">controlUnit : ControlUnit</text><rect fill="none" height="6" style="stroke:#C82930;stroke-width:1;" width="6" x="310.05" y="66.2324"/><text fill="#000000" font-family="sans-serif" font-size="14" lengthAdjust="spacing" textLength="190.4082" x="322.05" y="73.0234">inputHandler : InputHandler</text><rect fill="none" height="6" style="stroke:#C82930;stroke-width:1;" width="6" x="310.05" y="82.7207"/><text fill="#000000" font-family="sans-serif" font-size="14" lengthAdjust="spacing" textLength="212.2764" x="322.05" y="89.5117">outputHandler : OutputHandler</text><rect fill="none" height="6" style="stroke:#C82930;stroke-width:1;" width="6" x="310.05" y="99.209"/><text fill="#000000" font-family="sans-serif" font-size="14" lengthAdjust="spacing" textLength="217.2461" x="322.05" y="106">inputConverter : InputConverter</text><rect fill="none" height="6" style="stroke:#C82930;stroke-width:1;" width="6" x="310.05" y="115.6973"/><text fill="#000000" font-family="sans-serif" font-size="14" lengthAdjust="spacing" textLength="148.5859" x="322.05" y="122.4883">exitCommand : String</text><line style="stroke:#181818;stroke-width:0.5;" x1="303.05" x2="544.2961" y1="129.4414" y2="129.4414"/><ellipse cx="313.05" cy="143.1855" fill="#84BE84" rx="3" ry="3" style="stroke:#038048;stroke-width:1;"/><text fill="#000000" font-family="sans-serif" font-size="14" lengthAdjust="spacing" textLength="114.208" x="322.05" y="146.9766">CPUSimulator(...)</text><ellipse cx="313.05" cy="159.6738" fill="#84BE84" rx="3" ry="3" style="stroke:#038048;stroke-width:1;"/><text fill="#000000" font-family="sans-serif" font-size="14" lengthAdjust="spacing" textLength="74.2041" x="322.05" y="163.4648">run() : void</text></g><!--link InputHandlerImpl to InputHandler--><g class="link" data-entity-1="InputHandlerImpl" data-entity-2="InputHandler" data-source-line="12" data-uid="lnk4" id="link_InputHandlerImpl_InputHandler"><path codeLine="12" d="M137.89,137.61 C149.74,167.13 157.8861,187.435 168.2761,213.325" fill="none" id="InputHandlerImpl-to-InputHandler" style="stroke:#181818;stroke-width:1;stroke-dasharray:7.0,7.0;"/><polygon fill="none" points="174.98,230.03,173.8444,211.0903,162.7077,215.5596,174.98,230.03" style="stroke:#181818;stroke-width:1;"/></g><!--link InputHandlerImpl to Scanner--><g class="link" data-entity-1="InputHandlerImpl" data-entity-2="Scanner" data-source-line="13" data-uid="lnk6" id="link_InputHandlerImpl_Scanner"><path codeLine="13" d="M99.45,137.61 C86.29,170.4 71.6551,206.8918 61.3151,232.6518" fill="none" id="InputHandlerImpl-to-Scanner" style="stroke:#181818;stroke-width:1;"/><polygon fill="#181818" points="59.08,238.22,66.1447,231.3578,60.9425,233.5799,58.7205,228.3777,59.08,238.22" style="stroke:#181818;stroke-width:1;"/></g><!--link OutputHandlerImpl to OutputHandler--><g class="link" data-entity-1="OutputHandlerImpl" data-entity-2="OutputHandler" data-source-line="24" data-uid="lnk9" id="link_OutputHandlerImpl_OutputHandler"><path codeLine="24" d="M689.67,129.59 C689.67,160.15 689.67,183.74 689.67,212.03" fill="none" id="OutputHandlerImpl-to-OutputHandler" style="stroke:#181818;stroke-width:1;stroke-dasharray:7.0,7.0;"/><polygon fill="none" points="689.67,230.03,695.67,212.03,683.67,212.03,689.67,230.03" style="stroke:#181818;stroke-width:1;"/></g><!--link CPUSimulator to InputHandler--><g class="link" data-entity-1="CPUSimulator" data-entity-2="InputHandler" data-source-line="41" data-uid="lnk12" id="link_CPUSimulator_InputHandler"><path codeLine="41" d="M312.24,170.91 C283.36,191.95 258.7997,209.8472 235.8197,226.5872" fill="none" id="CPUSimulator-to-InputHandler" style="stroke:#181818;stroke-width:1;"/><polygon fill="#181818" points="230.97,230.12,240.5997,228.0539,235.0114,227.176,235.8893,221.5877,230.97,230.12" style="stroke:#181818;stroke-width:1;"/></g><!--link CPUSimulator to OutputHandler--><g class="link" data-entity-1="CPUSimulator" data-entity-2="OutputHandler" data-source-line="42" data-uid="lnk13" id="link_CPUSimulator_OutputHandler"><path codeLine="42" d="M545.77,168.64 C579.37,190.36 608.8605,209.4337 635.6805,226.7637" fill="none" id="CPUSimulator-to-OutputHandler" style="stroke:#181818;stroke-width:1;"/><polygon fill="#181818" points="640.72,230.02,635.3316,221.7759,636.5204,227.3064,630.9899,228.4952,640.72,230.02" style="stroke:#181818;stroke-width:1;"/></g><!--link CPUSimulator to InputConverter--><g class="link" data-entity-1="CPUSimulator" data-entity-2="InputConverter" data-source-line="43" data-uid="lnk14" id="link_CPUSimulator_InputConverter"><path codeLine="43" d="M423.67,170.91 C423.67,191.95 423.67,207.38 423.67,224.12" fill="none" id="CPUSimulator-to-InputConverter" style="stroke:#181818;stroke-width:1;"/><polygon fill="#181818" points="423.67,230.12,427.67,221.12,423.67,225.12,419.67,221.12,423.67,230.12" style="stroke:#181818;stroke-width:1;"/></g><!--SRC=[VLB1JiGW4Btp5HnfDkK36bCFlRWdZPlz06pH4EdGq67ZPlNVBKXeAUgjdNdlpNipA41fNqKlwH4cXmy21YqjlH5A3zHACR2ADlI4Li4R-IAarsAUC-nnd7J0r_HTNb-Ci8Ddz090sY2pHxFgB_L2b_FFDkENaBfkqpIYKfn7XqMUQPc3x5dEJkFTVRiuy5_LcYiZfM27iXuZ_2DOIeKiMNdhD-Jg35oanMGOJMV6SG6pdnrHvL5-Px7k9qNltTFvf4Qd1HeRxz4RG6lq6HG6IleBNRKzU9DlsVTDji5cPpqfh9wRNOY0aHyAezdrr3xRrY_ZdCT7uI2yYOjH8LoMofywirbqSu-_arT_tm00]--></g></svg>