<svg xmlns="http://www.w3.org/2000/svg" xmlns:xlink="http://www.w3.org/1999/xlink" contentStyleType="text/css" data-diagram-type="CLASS" height="235px" preserveAspectRatio="none" style="width:207px;height:235px;background:#FFFFFF;" version="1.1" viewBox="0 0 207 235" width="207px" zoomAndPan="magnify"><defs/><g><!--class OutputHandler--><g class="entity" data-entity="OutputHandler" data-source-line="2" data-uid="ent0002" id="entity_OutputHandler"><rect fill="#F1F1F1" height="64.4883" rx="2.5" ry="2.5" style="stroke:#181818;stroke-width:0.5;" width="180.8682" x="13.08" y="164.46"/><ellipse cx="49.7863" cy="180.46" fill="#B4A7E5" rx="11" ry="11" style="stroke:#181818;stroke-width:1;"/><path d="M46.2141,176.7251 L46.2141,174.5669 L53.5935,174.5669 L53.5935,176.7251 L51.1281,176.7251 L51.1281,184.8018 L53.5935,184.8018 L53.5935,186.96 L46.2141,186.96 L46.2141,184.8018 L48.6794,184.8018 L48.6794,176.7251 Z " fill="#000000"/><text fill="#000000" font-family="sans-serif" font-size="14" font-style="italic" lengthAdjust="spacing" textLength="100.6318" x="68.61" y="185.751">OutputHandler</text><line style="stroke:#181818;stroke-width:0.5;" x1="14.08" x2="192.9482" y1="196.46" y2="196.46"/><line style="stroke:#181818;stroke-width:0.5;" x1="14.08" x2="192.9482" y1="204.46" y2="204.46"/><ellipse cx="24.08" cy="218.2041" fill="#84BE84" rx="3" ry="3" style="stroke:#038048;stroke-width:1;"/><text fill="#000000" font-family="sans-serif" font-size="14" lengthAdjust="spacing" textLength="154.8682" x="33.08" y="221.9952">print(text: String): void</text></g><!--class OutputHandlerImpl--><g class="entity" data-entity="OutputHandlerImpl" data-source-line="6" data-uid="ent0003" id="entity_OutputHandlerImpl"><rect fill="#F1F1F1" height="97.4648" rx="2.5" ry="2.5" style="stroke:#181818;stroke-width:0.5;" width="193.0225" x="7" y="7"/><ellipse cx="35.6929" cy="23" fill="#ADD1B2" rx="11" ry="11" style="stroke:#181818;stroke-width:1;"/><path d="M38.1661,29.1431 Q37.585,29.4419 36.9458,29.5913 Q36.3067,29.7407 35.6011,29.7407 Q33.0943,29.7407 31.7745,28.0889 Q30.4546,26.437 30.4546,23.3159 Q30.4546,20.1865 31.7745,18.5347 Q33.0943,16.8828 35.6011,16.8828 Q36.3067,16.8828 36.9542,17.0322 Q37.6016,17.1816 38.1661,17.4805 L38.1661,20.2031 Q37.5352,19.6221 36.9417,19.3523 Q36.3482,19.0825 35.7173,19.0825 Q34.3726,19.0825 33.6878,20.1492 Q33.003,21.2158 33.003,23.3159 Q33.003,25.4077 33.6878,26.4744 Q34.3726,27.541 35.7173,27.541 Q36.3482,27.541 36.9417,27.2712 Q37.5352,27.0015 38.1661,26.4204 Z " fill="#000000"/><text fill="#000000" font-family="sans-serif" font-size="14" lengthAdjust="spacing" textLength="130.5938" x="52.7358" y="28.291">OutputHandlerImpl</text><line style="stroke:#181818;stroke-width:0.5;" x1="8" x2="199.0225" y1="39" y2="39"/><rect fill="none" height="6" style="stroke:#C82930;stroke-width:1;" width="6" x="15" y="49.7441"/><text fill="#000000" font-family="sans-serif" font-size="14" lengthAdjust="spacing" textLength="167.0225" x="27" y="56.5352">printStream: PrintStream</text><line style="stroke:#181818;stroke-width:0.5;" x1="8" x2="199.0225" y1="63.4883" y2="63.4883"/><ellipse cx="18" cy="77.2324" fill="#84BE84" rx="3" ry="3" style="stroke:#038048;stroke-width:1;"/><text fill="#000000" font-family="sans-serif" font-size="14" lengthAdjust="spacing" textLength="139.6992" x="27" y="81.0234">OutputHandlerImpl()</text><ellipse cx="18" cy="93.7207" fill="#84BE84" rx="3" ry="3" style="stroke:#038048;stroke-width:1;"/><text fill="#000000" font-family="sans-serif" font-size="14" lengthAdjust="spacing" textLength="154.8682" x="27" y="97.5117">print(text: String): void</text></g><!--link OutputHandlerImpl to OutputHandler--><g class="link" data-entity-1="OutputHandlerImpl" data-entity-2="OutputHandler" data-source-line="12" data-uid="lnk4" id="link_OutputHandlerImpl_OutputHandler"><path codeLine="12" d="M103.51,104.95 C103.51,124.55 103.51,128.64 103.51,146.13" fill="none" id="OutputHandlerImpl-to-OutputHandler" style="stroke:#181818;stroke-width:1;stroke-dasharray:7.0,7.0;"/><polygon fill="none" points="103.51,164.13,109.51,146.13,97.51,146.13,103.51,164.13" style="stroke:#181818;stroke-width:1;"/></g><!--SRC=[oymhIIrAIqnELV0lBIaeBV58p4l9IIrIgEPI00BjWgBCl1ADajIA4Yk5u18W9rtJIg4iFpE5gvQBApadiRWOLPzdRa4ELAykM2zGKsfYhfL20883CHb3cuOc4LPYMgQdLsE7wWOk0000]--></g></svg>